<?xml version="1.0" encoding="UTF-8" standalone="no"?>
<svg
   xmlns:dc="http://purl.org/dc/elements/1.1/"
   xmlns:cc="http://creativecommons.org/ns#"
   xmlns:rdf="http://www.w3.org/1999/02/22-rdf-syntax-ns#"
   xmlns:svg="http://www.w3.org/2000/svg"
   xmlns="http://www.w3.org/2000/svg"
   viewBox="0 0 256 256"
   height="256"
   width="256"
   xml:space="preserve"
   id="svg2"
   version="1.1"><metadata
     id="metadata8"><rdf:RDF><cc:Work
         rdf:about=""><dc:format>image/svg+xml</dc:format><dc:type
           rdf:resource="http://purl.org/dc/dcmitype/StillImage" /></cc:Work></rdf:RDF></metadata><defs
     id="defs6" /><g
     transform="matrix(1.3333333,0,0,1.3333333,0,6.4e-6)"
     id="g10"><g
       id="g12"><path
         id="path14"
         style="fill:#395185;fill-opacity:1;fill-rule:nonzero;stroke:none"
         d="M 181.402,192 C 187.254,192 192,187.258 192,181.402 V 10.598 C 192,4.742 187.254,0 181.402,0 H 10.598 C 4.742,0 0,4.742 0,10.598 V 181.402 C 0,187.258 4.742,192 10.598,192 h 170.804" /><path
         id="path16"
         style="fill:#ffffff;fill-opacity:1;fill-rule:nonzero;stroke:none"
         d="m 132.477,192 v -74.352 h 24.957 l 3.738,-28.976 h -28.695 v -18.5 c 0,-8.391 2.328,-14.11 14.359,-14.11 L 162.18,56.059 V 30.141 C 159.527,29.789 150.418,29 139.824,29 117.699,29 102.555,42.504 102.555,67.301 V 88.672 H 77.531 v 28.976 h 25.024 V 192 h 29.922" /></g></g></svg>