<?xml version="1.0" encoding="UTF-8" standalone="no"?>
<svg
   xmlns:dc="http://purl.org/dc/elements/1.1/"
   xmlns:cc="http://creativecommons.org/ns#"
   xmlns:rdf="http://www.w3.org/1999/02/22-rdf-syntax-ns#"
   xmlns:svg="http://www.w3.org/2000/svg"
   xmlns="http://www.w3.org/2000/svg"
   viewBox="0 0 27.444 27.443001"
   height="27.443001"
   width="27.444"
   xml:space="preserve"
   id="svg2"
   version="1.1"><metadata
     id="metadata8"><rdf:RDF><cc:Work
         rdf:about=""><dc:format>image/svg+xml</dc:format><dc:type
           rdf:resource="http://purl.org/dc/dcmitype/StillImage" /></cc:Work></rdf:RDF></metadata><defs
     id="defs6" /><g
     transform="matrix(1.3333333,0,0,-1.3333333,0,27.443001)"
     id="g10"><g
       id="g12" /><g
       id="g14"><path
         id="path16"
         style="fill:#3387f1;fill-opacity:1;fill-rule:nonzero;stroke:none"
         d="m 10.516,14.965 c -0.325,0.363 -0.7,0.543 -1.125,0.543 -0.481,0 -0.848,-0.172 -1.106,-0.516 -0.258,-0.343 -0.387,-0.761 -0.387,-1.25 0,-0.418 0.071,-0.839 0.211,-1.273 0.141,-0.434 0.371,-0.816 0.692,-1.16 0.32,-0.34 0.695,-0.512 1.117,-0.512 0.473,0 0.84,0.16 1.105,0.477 0.262,0.316 0.395,0.715 0.395,1.195 0,0.41 -0.07,0.836 -0.211,1.285 -0.137,0.445 -0.367,0.852 -0.691,1.211 z m 8.933,4.484 c -0.754,0.754 -1.664,1.133 -2.726,1.133 H 3.859 C 2.797,20.582 1.887,20.203 1.133,19.449 0.379,18.696 0,17.785 0,16.723 V 3.86 C 0,2.797 0.379,1.887 1.133,1.133 1.887,0.379 2.797,0 3.859,0 h 12.864 c 1.062,0 1.972,0.379 2.726,1.133 0.754,0.754 1.133,1.664 1.133,2.727 v 12.863 c 0,1.062 -0.379,1.973 -1.133,2.726 z m -4.234,-4.203 v -4.597 c 0,-0.215 -0.176,-0.387 -0.387,-0.387 h -0.14 c -0.215,0 -0.387,0.176 -0.387,0.387 v 4.597 c 0,0.188 -0.028,0.348 0.238,0.379 v 0.614 l -2.035,-1.668 c 0.023,-0.043 0.047,-0.071 0.066,-0.11 0.18,-0.316 0.27,-0.711 0.27,-1.191 0,-0.367 -0.063,-0.699 -0.188,-0.992 -0.125,-0.293 -0.273,-0.532 -0.449,-0.715 -0.176,-0.184 -0.351,-0.352 -0.527,-0.504 -0.176,-0.153 -0.328,-0.309 -0.449,-0.477 -0.125,-0.164 -0.188,-0.332 -0.188,-0.511 0,-0.176 0.082,-0.356 0.242,-0.536 0.16,-0.179 0.356,-0.355 0.59,-0.531 C 12.105,8.832 12.336,8.641 12.57,8.434 12.805,8.227 13,7.961 13.16,7.637 13.32,7.313 13.402,6.953 13.402,6.559 13.402,6.039 13.27,5.571 13.008,5.153 12.742,4.739 12.398,4.406 11.973,4.16 11.547,3.914 11.094,3.731 10.609,3.606 10.125,3.485 9.641,3.422 9.16,3.422 8.855,3.422 8.551,3.446 8.242,3.492 7.926,3.551 7.613,3.633 7.301,3.754 6.988,3.875 6.711,4.024 6.473,4.199 6.23,4.375 6.039,4.602 5.891,4.879 5.742,5.153 5.668,5.465 5.668,5.809 c 0,0.41 0.113,0.789 0.344,1.14 0.23,0.352 0.531,0.645 0.906,0.875 0.656,0.411 1.687,0.661 3.09,0.758 -0.32,0.403 -0.481,0.778 -0.481,1.133 0,0.199 0.051,0.418 0.157,0.649 -0.168,-0.024 -0.34,-0.036 -0.516,-0.036 -0.754,0 -1.391,0.246 -1.906,0.739 -0.516,0.492 -0.774,1.109 -0.774,1.851 0,0.078 0.004,0.145 0.008,0.223 H 3.434 l 4.613,4.012 h 7.641 L 14.98,16.602 v -0.973 c 0.262,-0.035 0.235,-0.191 0.235,-0.379 z M 10.555,8.102 C 10.465,8.117 10.344,8.125 10.184,8.125 9.84,8.125 9.5,8.094 9.168,8.035 8.836,7.977 8.508,7.875 8.184,7.735 7.859,7.594 7.598,7.387 7.395,7.117 7.195,6.844 7.094,6.524 7.094,6.156 7.094,5.805 7.184,5.492 7.359,5.219 7.535,4.946 7.766,4.735 8.055,4.582 8.344,4.43 8.645,4.313 8.961,4.239 9.277,4.164 9.602,4.125 9.926,4.125 c 0.648,0 1.207,0.145 1.676,0.438 0.468,0.293 0.703,0.742 0.703,1.351 0,0.129 -0.02,0.254 -0.055,0.379 -0.035,0.125 -0.074,0.231 -0.109,0.321 -0.036,0.085 -0.102,0.191 -0.203,0.312 -0.102,0.121 -0.176,0.211 -0.227,0.27 C 11.66,7.258 11.559,7.344 11.414,7.461 11.27,7.578 11.18,7.649 11.137,7.676 11.098,7.703 10.992,7.781 10.824,7.903 10.656,8.028 10.562,8.094 10.547,8.102 Z" /></g></g></svg>