<?xml version="1.0" encoding="UTF-8" standalone="no"?>
<svg
   xmlns:dc="http://purl.org/dc/elements/1.1/"
   xmlns:cc="http://creativecommons.org/ns#"
   xmlns:rdf="http://www.w3.org/1999/02/22-rdf-syntax-ns#"
   xmlns:svg="http://www.w3.org/2000/svg"
   xmlns="http://www.w3.org/2000/svg"
   viewBox="0 0 128 128"
   height="128"
   width="128"
   xml:space="preserve"
   id="svg2"
   version="1.1"><metadata
     id="metadata8"><rdf:RDF><cc:Work
         rdf:about=""><dc:format>image/svg+xml</dc:format><dc:type
           rdf:resource="http://purl.org/dc/dcmitype/StillImage" /></cc:Work></rdf:RDF></metadata><defs
     id="defs6"><radialGradient
       id="radialGradient32"
       spreadMethod="pad"
       gradientTransform="scale(0.75)"
       gradientUnits="userSpaceOnUse"
       r="163.5519"
       cy="128.4444"
       cx="19.111099"
       fy="128.4444"
       fx="19.111099"><stop
         id="stop24"
         offset="0"
         style="stop-opacity:1;stop-color:#ffb140" /><stop
         id="stop26"
         offset="0.2559"
         style="stop-opacity:1;stop-color:#ff5445" /><stop
         id="stop28"
         offset="0.599"
         style="stop-opacity:1;stop-color:#fc2b82" /><stop
         id="stop30"
         offset="1"
         style="stop-opacity:1;stop-color:#8e40b7" /></radialGradient></defs><g
     transform="matrix(1.3333333,0,0,1.3333333,0,3.2e-6)"
     id="g10"><g
       id="g12"><g
         id="g14"><g
           id="g16"><g
             id="g22"><path
               id="path34"
               style="fill:url(#radialGradient32);fill-rule:evenodd;stroke:none"
               d="m 79.383,22.379 c 0,3.18 -2.578,5.758 -5.762,5.758 -3.18,0 -5.758,-2.578 -5.758,-5.758 0,-3.184 2.578,-5.762 5.758,-5.762 3.184,0 5.762,2.578 5.762,5.762 z M 48,64 c -8.836,0 -16,-7.164 -16,-16 0,-8.836 7.164,-16 16,-16 8.836,0 16,7.164 16,16 0,8.836 -7.164,16 -16,16 z M 48,23.352 C 34.387,23.352 23.352,34.387 23.352,48 23.352,61.613 34.387,72.648 48,72.648 61.613,72.648 72.648,61.613 72.648,48 72.648,34.387 61.613,23.352 48,23.352 Z M 48,8.648 c 12.816,0 14.336,0.051 19.395,0.282 4.679,0.211 7.222,0.996 8.914,1.652 2.242,0.871 3.839,1.91 5.519,3.59 1.68,1.68 2.719,3.277 3.59,5.519 0.656,1.692 1.441,4.235 1.652,8.914 0.235,5.063 0.282,6.579 0.282,19.395 0,12.816 -0.047,14.336 -0.282,19.398 -0.211,4.68 -0.992,7.219 -1.652,8.911 -0.871,2.242 -1.91,3.839 -3.59,5.519 -1.68,1.68 -3.277,2.723 -5.519,3.594 -1.692,0.656 -4.235,1.437 -8.914,1.652 -5.059,0.231 -6.579,0.278 -19.395,0.278 -12.816,0 -14.336,-0.047 -19.398,-0.278 -4.68,-0.215 -7.219,-0.996 -8.911,-1.652 -2.242,-0.871 -3.839,-1.914 -5.519,-3.594 -1.68,-1.68 -2.723,-3.277 -3.59,-5.519 C 9.922,74.617 9.141,72.078 8.926,67.398 8.695,62.336 8.648,60.816 8.648,48 c 0,-12.816 0.047,-14.332 0.278,-19.395 0.215,-4.679 0.996,-7.222 1.656,-8.914 0.867,-2.238 1.91,-3.839 3.59,-5.519 1.68,-1.68 3.277,-2.719 5.519,-3.59 C 21.383,9.926 23.922,9.141 28.602,8.93 33.664,8.699 35.184,8.648 48,8.648 Z M 48,0 C 34.965,0 33.328,0.055 28.211,0.289 23.102,0.523 19.609,1.332 16.559,2.52 13.402,3.746 10.727,5.387 8.055,8.055 5.387,10.727 3.746,13.402 2.52,16.559 1.332,19.613 0.523,23.102 0.289,28.211 0.055,33.328 0,34.965 0,48 c 0,13.035 0.055,14.672 0.289,19.789 0.234,5.109 1.043,8.598 2.231,11.652 1.226,3.157 2.867,5.832 5.535,8.504 2.672,2.668 5.347,4.309 8.504,5.535 3.054,1.188 6.543,1.997 11.652,2.231 C 33.328,95.945 34.965,96 48,96 c 13.035,0 14.672,-0.055 19.789,-0.289 5.109,-0.234 8.598,-1.043 11.652,-2.231 3.157,-1.226 5.832,-2.867 8.504,-5.535 2.668,-2.672 4.309,-5.347 5.535,-8.504 1.188,-3.054 1.997,-6.543 2.231,-11.652 C 95.945,62.672 96,61.035 96,48 96,34.965 95.945,33.328 95.711,28.211 95.477,23.102 94.668,19.613 93.48,16.559 92.254,13.402 90.613,10.727 87.945,8.055 85.273,5.387 82.598,3.746 79.441,2.52 76.387,1.332 72.898,0.523 67.789,0.289 62.672,0.055 61.035,0 48,0 Z" /></g></g></g></g></g></svg>