<?xml version="1.0" encoding="UTF-8" standalone="no"?>
<svg
   xmlns:dc="http://purl.org/dc/elements/1.1/"
   xmlns:cc="http://creativecommons.org/ns#"
   xmlns:rdf="http://www.w3.org/1999/02/22-rdf-syntax-ns#"
   xmlns:svg="http://www.w3.org/2000/svg"
   xmlns="http://www.w3.org/2000/svg"
   viewBox="0 0 1024 1024"
   height="1024"
   width="1024"
   xml:space="preserve"
   id="svg2"
   version="1.1"><metadata
     id="metadata8"><rdf:RDF><cc:Work
         rdf:about=""><dc:format>image/svg+xml</dc:format><dc:type
           rdf:resource="http://purl.org/dc/dcmitype/StillImage" /></cc:Work></rdf:RDF></metadata><defs
     id="defs6" /><g
     transform="matrix(1.3333333,0,0,-1.3333333,0,1024)"
     id="g10"><g
       id="g12"><path
         id="path14"
         style="fill:#0077b5;fill-opacity:1;fill-rule:nonzero;stroke:none"
         d="M 654.305,113.535 H 540.578 v 178.207 c 0,42.496 -0.863,97.184 -59.266,97.184 -59.296,0 -68.351,-46.238 -68.351,-94.047 V 113.535 H 299.234 V 480 H 408.48 v -49.953 h 1.473 c 15.266,28.801 52.383,59.199 107.84,59.199 115.23,0 136.543,-75.84 136.543,-174.558 V 113.535 Z m -483.52,416.61 c -36.609,0 -66.015,29.632 -66.015,66.082 0,36.418 29.441,66.015 66.015,66.015 36.481,0 66.047,-29.601 66.047,-66.015 0,-36.45 -29.602,-66.082 -66.047,-66.082 z m 57.024,-416.61 H 113.762 V 480 H 227.809 Z M 711.199,768 H 56.672 C 25.344,768 0,743.23 0,712.672 V 55.328 C 0,24.738 25.344,0 56.672,0 H 711.105 C 742.402,0 768,24.734 768,55.328 V 712.672 C 768,743.23 742.398,768 711.105,768 h 0.098 z" /></g></g></svg>