<?xml version="1.0" encoding="UTF-8" standalone="no"?>
<svg
   xmlns:dc="http://purl.org/dc/elements/1.1/"
   xmlns:cc="http://creativecommons.org/ns#"
   xmlns:rdf="http://www.w3.org/1999/02/22-rdf-syntax-ns#"
   xmlns:svg="http://www.w3.org/2000/svg"
   xmlns="http://www.w3.org/2000/svg"
   viewBox="0 0 27.437332 27.437332"
   height="27.437332"
   width="27.437332"
   xml:space="preserve"
   id="svg2"
   version="1.1"><metadata
     id="metadata8"><rdf:RDF><cc:Work
         rdf:about=""><dc:format>image/svg+xml</dc:format><dc:type
           rdf:resource="http://purl.org/dc/dcmitype/StillImage" /></cc:Work></rdf:RDF></metadata><defs
     id="defs6" /><g
     transform="matrix(1.3333333,0,0,-1.3333333,0,27.437332)"
     id="g10"><g
       id="g12"><path
         id="path14"
         style="fill:#a6ce39;fill-opacity:1;fill-rule:nonzero;stroke:none"
         d="m 13.633,12.84 c -0.297,0.136 -0.574,0.23 -0.84,0.273 -0.266,0.047 -0.688,0.067 -1.273,0.067 H 9.996 V 6.84 h 1.563 c 0.609,0 1.082,0.043 1.418,0.125 0.335,0.082 0.621,0.187 0.843,0.316 0.227,0.129 0.434,0.285 0.621,0.473 0.602,0.609 0.903,1.379 0.903,2.312 0,0.914 -0.309,1.66 -0.926,2.242 -0.227,0.215 -0.492,0.391 -0.785,0.532 z m -3.344,7.738 C 4.605,20.578 0,15.969 0,10.289 0,4.605 4.605,0 10.289,0 c 5.684,0 10.289,4.609 10.289,10.289 0,5.684 -4.605,10.289 -10.289,10.289 z M 6.871,5.746 H 5.652 v 8.523 h 1.219 z m -0.613,9.41 c -0.461,0 -0.84,0.375 -0.84,0.84 0,0.461 0.375,0.836 0.84,0.836 0.465,0 0.84,-0.375 0.84,-0.836 0,-0.465 -0.375,-0.84 -0.84,-0.84 z M 16.277,8.367 C 16.059,7.848 15.746,7.387 15.336,6.992 14.922,6.586 14.441,6.277 13.891,6.07 13.57,5.945 13.273,5.859 13.008,5.816 12.738,5.773 12.227,5.754 11.469,5.754 H 8.773 v 8.508 h 2.872 c 1.16,0 2.074,-0.172 2.75,-0.52 0.675,-0.348 1.21,-0.859 1.609,-1.535 0.398,-0.676 0.598,-1.41 0.598,-2.207 0,-0.57 -0.11,-1.117 -0.329,-1.637 z" /></g></g></svg>