<?xml version="1.0" encoding="UTF-8" standalone="no"?>
<svg
   xmlns:dc="http://purl.org/dc/elements/1.1/"
   xmlns:cc="http://creativecommons.org/ns#"
   xmlns:rdf="http://www.w3.org/1999/02/22-rdf-syntax-ns#"
   xmlns:svg="http://www.w3.org/2000/svg"
   xmlns="http://www.w3.org/2000/svg"
   viewBox="0 0 27 27.442669"
   height="27.442669"
   width="27"
   xml:space="preserve"
   id="svg2"
   version="1.1"><metadata
     id="metadata8"><rdf:RDF><cc:Work
         rdf:about=""><dc:format>image/svg+xml</dc:format><dc:type
           rdf:resource="http://purl.org/dc/dcmitype/StillImage" /></cc:Work></rdf:RDF></metadata><defs
     id="defs6"><clipPath
       id="clipPath24"
       clipPathUnits="userSpaceOnUse"><path
         id="path22"
         d="M 0,0 H 21 V 21 H 0 Z" /></clipPath></defs><g
     transform="matrix(1.3333333,0,0,-1.3333333,0,27.442668)"
     id="g10"><g
       id="g12" /><g
       id="g14"><g
         transform="translate(0,-0.417999)"
         id="g16"><g
           id="g18"><g
             clip-path="url(#clipPath24)"
             id="g20"><g
               id="g26"><path
                 id="path28"
                 style="fill:#00ccbb;fill-opacity:1;fill-rule:nonzero;stroke:none"
                 d="M 19.449,19.867 C 18.695,20.621 17.785,21 16.723,21 H 3.859 C 2.797,21 1.887,20.621 1.133,19.867 0.379,19.113 0,18.203 0,17.141 V 4.277 C 0,3.215 0.379,2.305 1.133,1.551 1.887,0.797 2.797,0.418 3.859,0.418 h 12.864 c 1.062,0 1.972,0.379 2.726,1.133 0.754,0.754 1.133,1.664 1.133,2.726 v 12.864 c 0,1.062 -0.379,1.972 -1.133,2.726 z M 13.57,3.996 C 13.367,3.902 13.035,3.848 12.723,3.848 c -1.071,0 -1.918,0.422 -2.469,1.09 -0.609,0.699 -1.68,2.21 -2.801,4.218 -0.59,0 -0.976,0 -1.418,0.035 V 6.113 c 0,-1.14 0.258,-1.383 0.754,-1.457 L 7.746,4.527 V 3.992 C 7.285,4.012 6.219,4.047 5.387,4.047 4.52,4.047 3.656,4.012 3.156,3.992 V 4.527 L 3.855,4.656 C 4.336,4.75 4.609,4.969 4.609,6.113 v 7.262 c 0,1.141 -0.273,1.363 -0.754,1.457 l -0.699,0.129 v 0.535 c 0.461,-0.019 1.199,-0.019 1.938,-0.019 0.808,0 1.676,0.054 2.765,0.054 2.102,0 3.703,-0.957 3.703,-3.023 0,-1.399 -1.105,-2.801 -2.597,-3.153 0.902,-1.601 1.988,-3.023 2.801,-3.906 0.48,-0.515 1.14,-0.976 1.804,-0.976 V 3.992 Z m 3.852,11.738 c 0,-0.277 0,-0.539 -0.027,-0.777 -0.028,-0.238 -0.067,-0.445 -0.114,-0.598 -0.152,-0.472 -0.39,-0.808 -0.758,-1.058 -0.367,-0.254 -0.839,-0.387 -1.351,-0.387 -0.527,0 -0.973,0.121 -1.336,0.363 -0.363,0.243 -0.625,0.602 -0.781,1.082 -0.032,0.09 -0.055,0.184 -0.071,0.282 -0.019,0.097 -0.035,0.211 -0.05,0.339 -0.016,0.129 -0.028,0.286 -0.032,0.469 -0.007,0.18 -0.007,0.403 -0.007,0.653 0,0.253 0.003,0.472 0.007,0.652 0.008,0.18 0.016,0.336 0.032,0.469 0.015,0.129 0.031,0.242 0.05,0.339 0.016,0.098 0.043,0.192 0.071,0.282 0.16,0.476 0.418,0.84 0.781,1.082 0.363,0.242 0.809,0.363 1.336,0.363 0.273,0 0.516,-0.031 0.734,-0.094 0.219,-0.066 0.41,-0.152 0.582,-0.265 0.172,-0.114 0.317,-0.242 0.438,-0.391 0.121,-0.148 0.222,-0.309 0.301,-0.477 0.031,-0.054 0.019,-0.097 -0.028,-0.128 l -0.672,-0.278 c -0.054,-0.031 -0.097,-0.015 -0.129,0.047 -0.152,0.277 -0.277,0.461 -0.492,0.594 -0.211,0.133 -0.41,0.195 -0.734,0.195 -0.352,0 -0.512,-0.066 -0.731,-0.226 C 14.219,18.109 14.062,17.914 13.965,17.617 13.945,17.562 13.93,17.496 13.91,17.418 13.891,17.34 13.879,17.242 13.871,17.129 13.863,17.016 13.855,16.875 13.848,16.707 13.844,16.539 13.84,16.34 13.84,16.102 c 0,-0.235 0.004,-0.438 0.008,-0.606 0.007,-0.164 0.015,-0.308 0.023,-0.422 0.008,-0.117 0.024,-0.215 0.039,-0.293 0.02,-0.078 0.035,-0.144 0.055,-0.199 0.097,-0.297 0.23,-0.457 0.43,-0.59 0.195,-0.133 0.425,-0.226 0.777,-0.226 0.312,0 0.601,0.089 0.789,0.226 0.187,0.137 0.34,0.317 0.41,0.563 0.031,0.101 0.07,0.234 0.094,0.39 0.023,0.157 0.023,0.325 0.023,0.555 0,0.035 -0.019,0.055 -0.054,0.055 h -1.075 c -0.058,0 -0.089,0.027 -0.089,0.09 v 0.613 c 0,0.062 0.031,0.09 0.089,0.09 h 1.969 c 0.063,0 0.09,-0.028 0.09,-0.09 V 15.73 Z M 9.996,12.418 c 0,1.473 -0.922,2.285 -2.469,2.285 -0.496,0 -1.07,0 -1.492,-0.035 v -4.625 c 0.422,-0.039 0.699,-0.055 1.328,-0.055 1.641,0 2.633,0.977 2.633,2.43 z" /></g></g></g></g></g></g></svg>