<?xml version="1.0" encoding="UTF-8" standalone="no"?>
<svg
   xmlns:dc="http://purl.org/dc/elements/1.1/"
   xmlns:cc="http://creativecommons.org/ns#"
   xmlns:rdf="http://www.w3.org/1999/02/22-rdf-syntax-ns#"
   xmlns:svg="http://www.w3.org/2000/svg"
   xmlns="http://www.w3.org/2000/svg"
   viewBox="0 0 256 180"
   height="180"
   width="256"
   xml:space="preserve"
   id="svg2"
   version="1.1"><metadata
     id="metadata8"><rdf:RDF><cc:Work
         rdf:about=""><dc:format>image/svg+xml</dc:format><dc:type
           rdf:resource="http://purl.org/dc/dcmitype/StillImage" /></cc:Work></rdf:RDF></metadata><defs
     id="defs6"><clipPath
       id="clipPath22"
       clipPathUnits="userSpaceOnUse"><path
         id="path20"
         d="M 0,0 H 192 V 135 H 0 Z" /></clipPath><linearGradient
       id="linearGradient46"
       spreadMethod="pad"
       gradientTransform="scale(0.75)"
       gradientUnits="userSpaceOnUse"
       y2="180.05431"
       x2="127.95002"
       y1="1.5625e-06"
       x1="127.95002"><stop
         id="stop42"
         offset="0"
         style="stop-opacity:1;stop-color:#e52d27" /><stop
         id="stop44"
         offset="1"
         style="stop-opacity:1;stop-color:#bf171d" /></linearGradient></defs><g
     transform="matrix(1.3333333,0,0,1.3333333,0,4.5e-6)"
     id="g10"><g
       id="g12"><path
         id="path14"
         style="fill:#ffffff;fill-opacity:1;fill-rule:nonzero;stroke:none"
         d="M 76.199,92.398 128.102,65.551 76.199,38.477 Z" /><g
         id="g16"><g
           id="g18" /><g
           id="g30"><g
             style="opacity:0.12000002"
             id="g28"
             clip-path="url(#clipPath22)"><g
               id="g26"><path
                 id="path24"
                 style="fill:#420000;fill-opacity:1;fill-rule:nonzero;stroke:none"
                 d="m 76.199,38.477 45.528,30.375 6.375,-3.301 z" /></g></g></g></g><g
         id="g32"><g
           id="g34"><g
             id="g40"><path
               id="path48"
               style="fill:url(#linearGradient46);stroke:none"
               d="m 189.977,29.102 c 0,0 -1.875,-13.204 -7.649,-19.051 C 175.055,2.398 166.887,2.398 163.062,1.949 136.297,0 96.039,0 96.039,0 h -0.078 c 0,0 -40.258,0 -67.172,1.949 C 25.039,2.398 16.867,2.398 9.52,10.051 3.824,15.898 1.949,29.102 1.949,29.102 1.949,29.102 0,44.699 0,60.227 v 14.546 c 0,15.528 1.949,31.051 1.949,31.051 0,0 1.875,13.199 7.649,19.051 7.269,7.648 16.867,7.426 21.14,8.176 15.367,1.5 65.223,1.949 65.223,1.949 0,0 40.336,-0.074 67.176,-2.023 3.75,-0.454 11.918,-0.454 19.265,-8.102 5.774,-5.852 7.649,-19.051 7.649,-19.051 0,0 1.949,-15.523 1.949,-31.051 V 60.227 C 191.926,44.699 189.977,29.102 189.977,29.102 Z M 76.172,92.398 V 38.477 l 51.879,27.074 z" /></g></g></g></g></g></svg>